# Blender 4.1.1
# www.blender.org
mtllib water_001.mtl
o Cube
v -0.827629 -0.020306 0.827629
v -0.125088 6.665237 1.886381
v -0.827629 -0.020306 -0.827629
v -0.125088 6.819595 1.689501
v 0.827629 -0.020306 0.827629
v 0.125088 6.665237 1.886381
v 0.827629 -0.020306 -0.827629
v 0.125088 6.819595 1.689501
v -0.483331 4.390076 0.757419
v -0.483331 4.505765 -0.194095
v 0.483331 4.505765 -0.194095
v 0.483331 4.390076 0.757419
v -1.060400 -0.020306 -0.452610
v -1.137990 -0.020306 0.000000
v -1.060400 -0.020306 0.452610
v -0.394914 5.134021 0.941290
v -0.305517 5.727833 1.209478
v -0.215466 6.221557 1.533877
v -0.160269 6.700209 1.841776
v -0.171996 6.742416 1.787941
v -0.160269 6.784623 1.734107
v -0.570549 3.555721 -0.455023
v -0.656787 2.450127 -0.628056
v -0.742372 1.240835 -0.742492
v 0.452610 -0.020306 -1.060400
v 0.000000 -0.020306 -1.137990
v -0.452610 -0.020306 -1.060400
v -0.068408 6.841302 1.661815
v -0.000000 6.848537 1.652586
v 0.068408 6.841302 1.661815
v 0.570549 3.555721 -0.455023
v 0.656787 2.450127 -0.628056
v 0.742372 1.240835 -0.742492
v 1.060400 -0.020306 0.452610
v 1.137990 -0.020306 0.000000
v 1.060400 -0.020306 -0.452610
v 0.160269 6.784624 1.734107
v 0.171996 6.742416 1.787941
v 0.160269 6.700209 1.841776
v 0.570549 3.462635 0.676602
v 0.656788 2.385062 0.680102
v 0.742372 1.207400 0.739813
v -0.452610 -0.020306 1.060400
v 0.000000 -0.020306 1.137990
v 0.452610 -0.020306 1.060400
v 0.068408 6.643530 1.914067
v 0.000000 6.636295 1.923296
v -0.068408 6.643531 1.914067
v -0.742372 1.207400 0.739813
v -0.656787 2.385062 0.680102
v -0.570549 3.462635 0.676602
v -0.215466 6.370761 1.145356
v -0.305517 5.870078 0.630509
v -0.394914 5.265696 0.174260
v 0.215466 6.370761 1.145356
v 0.305517 5.870078 0.630509
v 0.394914 5.265696 0.174259
v 0.215466 6.221558 1.533877
v 0.305517 5.727834 1.209478
v 0.394914 5.134021 0.941290
v 0.264322 4.373807 0.891226
v 0.000000 4.368384 0.935828
v -0.264322 4.373807 0.891226
v 0.619268 4.479555 0.021482
v 0.664580 4.447921 0.281662
v 0.619268 4.416286 0.541842
v -0.264322 4.522034 -0.327902
v -0.000000 4.527457 -0.372504
v 0.264322 4.522034 -0.327902
v -0.619268 4.416286 0.541842
v -0.664580 4.447920 0.281662
v -0.619268 4.479554 0.021482
v -0.505984 5.163854 0.767510
v -0.391443 5.760060 1.078305
v -0.276066 6.255362 1.445852
v -0.543007 5.199858 0.557775
v -0.420086 5.798956 0.919994
v -0.296266 6.296159 1.339616
v -0.505984 5.235863 0.348040
v -0.391443 5.837851 0.761682
v -0.276066 6.336958 1.233380
v -0.215969 5.284212 0.066396
v -0.167080 5.890081 0.549092
v -0.117833 6.391743 1.090720
v -0.000000 5.290385 0.030441
v 0.000000 5.896749 0.521953
v 0.000000 6.398737 1.072508
v 0.215969 5.284213 0.066396
v 0.167080 5.890081 0.549092
v 0.117833 6.391743 1.090720
v 0.505984 5.235862 0.348040
v 0.391443 5.837851 0.761682
v 0.276066 6.336957 1.233380
v 0.543007 5.199859 0.557775
v 0.420086 5.798956 0.919994
v 0.296266 6.296159 1.339616
v 0.505984 5.163854 0.767510
v 0.391443 5.760061 1.078305
v 0.276066 6.255362 1.445853
v 0.215969 5.115505 1.049154
v 0.167080 5.707830 1.290895
v 0.117833 6.200576 1.588512
v 0.000000 5.109333 1.085108
v -0.000000 5.701163 1.318034
v -0.000000 6.193582 1.606724
v -0.215969 5.115504 1.049154
v -0.167080 5.707830 1.290895
v -0.117833 6.200575 1.588512
v 0.405985 1.202698 0.948262
v 0.359181 2.375912 0.864062
v 0.312019 3.449545 0.835737
v 0.000000 1.201131 1.017745
v 0.000000 2.372862 0.925381
v 0.000000 3.445182 0.888782
v -0.405985 1.202698 0.948262
v -0.359181 2.375912 0.864062
v -0.312019 3.449545 0.835737
v 0.951164 1.233260 -0.406657
v 0.841509 2.435386 -0.331676
v 0.731016 3.534631 -0.198639
v 1.020761 1.224118 -0.001339
v 0.903083 2.417594 0.026023
v 0.784505 3.509178 0.110790
v 0.951164 1.214975 0.403978
v 0.841509 2.399803 0.383722
v 0.731017 3.483725 0.420218
v -0.405985 1.245537 -0.950941
v -0.359181 2.459277 -0.812015
v -0.312019 3.568810 -0.614158
v -0.000000 1.247104 -1.020424
v -0.000000 2.462327 -0.873335
v -0.000000 3.573174 -0.667203
v 0.405985 1.245537 -0.950941
v 0.359181 2.459277 -0.812015
v 0.312019 3.568810 -0.614158
v -0.951164 1.214975 0.403978
v -0.841509 2.399803 0.383722
v -0.731016 3.483725 0.420218
v -1.020761 1.224117 -0.001339
v -0.903083 2.417594 0.026023
v -0.784505 3.509178 0.110790
v -0.951164 1.233260 -0.406657
v -0.841509 2.435386 -0.331676
v -0.731017 3.534631 -0.198639
vn -0.7027 0.0991 0.7045
vn -0.6847 -0.3635 0.6317
vn -0.7041 0.0952 -0.7037
vn -0.6543 0.6336 -0.4128
vn 0.7027 0.0991 0.7045
vn 0.6847 -0.3635 0.6317
vn 0.7041 0.0952 -0.7037
vn 0.6543 0.6336 -0.4128
vn -0.7101 -0.0406 0.7029
vn -0.6803 0.3174 -0.6606
vn 0.6803 0.3174 -0.6606
vn 0.7101 -0.0406 0.7029
vn -0.9309 0.0941 -0.3529
vn -0.9956 0.0938 0.0011
vn -0.9300 0.0962 0.3548
vn -0.7101 -0.1425 0.6896
vn -0.7044 -0.2480 0.6650
vn -0.6993 -0.3253 0.6366
vn -0.9217 -0.0964 0.3757
vn -0.9804 0.1678 0.1034
vn -0.8959 0.4134 -0.1626
vn -0.6944 0.2063 -0.6894
vn -0.7004 0.1396 -0.6999
vn -0.7030 0.1056 -0.7034
vn 0.3537 0.0935 -0.9307
vn -0.0000 0.0924 -0.9957
vn -0.3537 0.0935 -0.9307
vn -0.3176 0.7591 -0.5683
vn -0.0000 0.7911 -0.6116
vn 0.3176 0.7591 -0.5683
vn 0.6944 0.2063 -0.6894
vn 0.7004 0.1396 -0.6999
vn 0.7030 0.1056 -0.7034
vn 0.9300 0.0962 0.3548
vn 0.9956 0.0938 0.0011
vn 0.9309 0.0941 -0.3529
vn 0.8959 0.4134 -0.1626
vn 0.9804 0.1678 0.1034
vn 0.9217 -0.0964 0.3757
vn 0.7063 0.0322 0.7071
vn 0.7040 0.0729 0.7064
vn 0.7033 0.0931 0.7047
vn -0.3528 0.0987 0.9305
vn -0.0000 0.0979 0.9952
vn 0.3528 0.0987 0.9305
vn 0.3357 -0.5329 0.7767
vn -0.0000 -0.5810 0.8139
vn -0.3357 -0.5329 0.7767
vn -0.7033 0.0931 0.7047
vn -0.7040 0.0729 0.7064
vn -0.7063 0.0322 0.7071
vn -0.6352 0.6251 -0.4537
vn -0.6342 0.5657 -0.5271
vn -0.6570 0.4528 -0.6028
vn 0.6352 0.6251 -0.4537
vn 0.6342 0.5657 -0.5271
vn 0.6570 0.4528 -0.6028
vn 0.6993 -0.3253 0.6366
vn 0.7044 -0.2480 0.6650
vn 0.7101 -0.1425 0.6896
vn 0.3561 -0.1052 0.9285
vn -0.0000 -0.1247 0.9922
vn -0.3561 -0.1052 0.9285
vn 0.9142 0.2320 -0.3323
vn 0.9899 0.1413 0.0089
vn 0.9333 0.0511 0.3556
vn -0.3380 0.3672 -0.8666
vn -0.0000 0.3804 -0.9248
vn 0.3380 0.3672 -0.8666
vn -0.9333 0.0511 0.3556
vn -0.9899 0.1413 0.0089
vn -0.9142 0.2320 -0.3323
vn -0.9343 0.0170 0.3562
vn -0.9333 -0.0242 0.3582
vn -0.9298 -0.0653 0.3623
vn -0.9849 0.1718 0.0215
vn -0.9803 0.1930 0.0431
vn -0.9792 0.1886 0.0746
vn -0.8979 0.3201 -0.3021
vn -0.8825 0.3938 -0.2572
vn -0.8832 0.4229 -0.2025
vn -0.3220 0.5280 -0.7859
vn -0.3062 0.6597 -0.6863
vn -0.3066 0.7362 -0.6033
vn -0.0000 0.5478 -0.8366
vn -0.0000 0.6839 -0.7296
vn -0.0000 0.7646 -0.6445
vn 0.3220 0.5280 -0.7859
vn 0.3062 0.6597 -0.6863
vn 0.3066 0.7362 -0.6033
vn 0.8979 0.3201 -0.3021
vn 0.8825 0.3938 -0.2572
vn 0.8832 0.4229 -0.2025
vn 0.9849 0.1718 0.0215
vn 0.9803 0.1930 0.0431
vn 0.9792 0.1886 0.0746
vn 0.9343 0.0170 0.3562
vn 0.9333 -0.0242 0.3582
vn 0.9298 -0.0653 0.3623
vn 0.3537 -0.2521 0.9007
vn 0.3469 -0.3966 0.8499
vn 0.3441 -0.4960 0.7972
vn -0.0000 -0.2840 0.9588
vn -0.0000 -0.4387 0.8987
vn -0.0000 -0.5445 0.8387
vn -0.3537 -0.2521 0.9007
vn -0.3469 -0.3966 0.8499
vn -0.3441 -0.4960 0.7972
vn 0.3526 0.0899 0.9314
vn 0.3530 0.0607 0.9337
vn 0.3544 0.0015 0.9351
vn -0.0000 0.0883 0.9961
vn -0.0000 0.0565 0.9984
vn -0.0000 -0.0082 1.0000
vn -0.3526 0.0899 0.9314
vn -0.3530 0.0607 0.9337
vn -0.3544 0.0015 0.9351
vn 0.9303 0.1004 -0.3527
vn 0.9286 0.1210 -0.3509
vn 0.9242 0.1619 -0.3458
vn 0.9954 0.0959 0.0009
vn 0.9947 0.1029 0.0023
vn 0.9931 0.1168 0.0044
vn 0.9304 0.0942 0.3542
vn 0.9306 0.0875 0.3555
vn 0.9314 0.0743 0.3563
vn -0.3526 0.1066 -0.9297
vn -0.3510 0.1491 -0.9244
vn -0.3472 0.2318 -0.9087
vn -0.0000 0.1062 -0.9943
vn -0.0000 0.1511 -0.9885
vn -0.0000 0.2383 -0.9712
vn 0.3526 0.1066 -0.9297
vn 0.3510 0.1491 -0.9244
vn 0.3472 0.2318 -0.9087
vn -0.9304 0.0942 0.3542
vn -0.9306 0.0875 0.3555
vn -0.9314 0.0743 0.3563
vn -0.9954 0.0959 0.0009
vn -0.9947 0.1029 0.0023
vn -0.9931 0.1168 0.0044
vn -0.9303 0.1004 -0.3527
vn -0.9286 0.1210 -0.3509
vn -0.9242 0.1619 -0.3458
vt 0.593937 0.685938
vt 0.594065 0.795833
vt 0.511823 0.795833
vt 0.512142 0.685938
vt 0.594408 0.899479
vt 0.511048 0.899479
vt 0.432498 0.795833
vt 0.433582 0.685938
vt 0.429648 0.899479
vt 0.676667 0.566667
vt 0.676701 0.685938
vt 0.593919 0.566667
vt 0.676945 0.795833
vt 0.677674 0.899479
vt 0.680000 1.000000
vt 0.595000 1.000000
vt 0.510000 1.000000
vt 0.425000 1.000000
vt 0.340000 1.000000
vt 0.354540 0.899479
vt 0.359097 0.795833
vt 0.360616 0.685938
vt 0.433737 0.566667
vt 0.360833 0.566667
vt 0.512188 0.566667
vt 0.295113 0.685938
vt 0.293987 0.795833
vt 0.236233 0.795833
vt 0.236886 0.685938
vt 0.291035 0.899479
vt 0.234646 0.899479
vt 0.184451 0.795833
vt 0.185285 0.685938
vt 0.182270 0.899479
vt 0.295273 0.566667
vt 0.286250 1.000000
vt 0.232500 1.000000
vt 0.178750 1.000000
vt 0.125000 1.000000
vt 0.135469 0.899479
vt 0.138750 0.795833
vt 0.139844 0.685938
vt 0.185404 0.566667
vt 0.140000 0.566667
vt 0.236979 0.566667
vt 0.099966 0.686187
vt 0.099180 0.795920
vt 0.064063 0.796528
vt 0.064336 0.687934
vt 0.097114 0.899490
vt 0.063398 0.899566
vt 0.031445 0.798004
vt 0.031479 0.692524
vt 0.031362 0.899750
vt 0.100078 0.567014
vt 0.093750 1.000000
vt 0.062500 1.000000
vt 0.031250 1.000000
vt 0.000000 1.000000
vt 0.000000 0.900000
vt 0.000000 0.800000
vt 0.000000 0.700000
vt 0.031484 0.576736
vt 0.000000 0.600000
vt 0.064375 0.569445
vt 0.919949 0.692524
vt 0.919957 0.798004
vt 0.839653 0.796528
vt 0.839592 0.687934
vt 0.919975 0.899750
vt 0.839800 0.899566
vt 0.758794 0.795920
vt 0.758619 0.686187
vt 0.759252 0.899490
vt 1.000000 0.600000
vt 1.000000 0.700000
vt 0.919948 0.576736
vt 1.000000 0.800000
vt 1.000000 0.900000
vt 1.000000 1.000000
vt 0.920000 1.000000
vt 0.840000 1.000000
vt 0.760000 1.000000
vt 0.758594 0.567014
vt 0.839583 0.569444
vt 0.919975 0.149750
vt 0.919957 0.298004
vt 0.839653 0.296528
vt 0.839800 0.149566
vt 0.919949 0.442524
vt 0.839592 0.437934
vt 0.758794 0.295920
vt 0.759252 0.149490
vt 0.758619 0.436187
vt 1.000000 0.000000
vt 1.000000 0.150000
vt 0.920000 0.000000
vt 1.000000 0.300000
vt 1.000000 0.450000
vt 0.676701 0.435938
vt 0.676944 0.295833
vt 0.677674 0.149479
vt 0.760000 0.000000
vt 0.680000 0.000000
vt 0.840000 0.000000
vt 0.097114 0.149490
vt 0.099180 0.295920
vt 0.064062 0.296528
vt 0.063398 0.149566
vt 0.099966 0.436187
vt 0.064336 0.437934
vt 0.031445 0.298003
vt 0.031362 0.149750
vt 0.031479 0.442524
vt 0.125000 0.000000
vt 0.135469 0.149479
vt 0.093750 0.000000
vt 0.138750 0.295833
vt 0.139844 0.435938
vt 0.000000 0.450000
vt 0.000000 0.300000
vt 0.000000 0.150000
vt 0.031250 0.000000
vt 0.000000 0.000000
vt 0.062500 0.000000
vt 0.291035 0.149479
vt 0.293987 0.295833
vt 0.236233 0.295833
vt 0.234646 0.149479
vt 0.295113 0.435938
vt 0.236886 0.435938
vt 0.184451 0.295833
vt 0.182270 0.149479
vt 0.185285 0.435938
vt 0.340000 0.000000
vt 0.354540 0.149479
vt 0.286250 0.000000
vt 0.359097 0.295833
vt 0.360616 0.435938
vt 0.178750 0.000000
vt 0.232500 0.000000
vt 0.594408 0.149479
vt 0.594065 0.295833
vt 0.511823 0.295833
vt 0.511048 0.149479
vt 0.593937 0.435938
vt 0.512142 0.435938
vt 0.432498 0.295833
vt 0.429648 0.149479
vt 0.433582 0.435938
vt 0.595000 0.000000
vt 0.425000 0.000000
vt 0.510000 0.000000
s 1
usemtl water
f 73/1/73 74/2/74 77/3/77 76/4/76
f 74/2/74 75/5/75 78/6/78 77/3/77
f 76/4/76 77/3/77 80/7/80 79/8/79
f 77/3/77 78/6/78 81/9/81 80/7/80
f 9/10/9 16/11/16 73/1/73 70/12/70
f 16/11/16 17/13/17 74/2/74 73/1/73
f 17/13/17 18/14/18 75/5/75 74/2/74
f 18/14/18 2/15/2 19/16/19 75/5/75
f 75/5/75 19/16/19 20/17/20 78/6/78
f 78/6/78 20/17/20 21/18/21 81/9/81
f 81/9/81 21/18/21 4/19/4 52/20/52
f 80/7/80 81/9/81 52/20/52 53/21/53
f 79/8/79 80/7/80 53/21/53 54/22/54
f 72/23/72 79/8/79 54/22/54 10/24/10
f 71/25/71 76/4/76 79/8/79 72/23/72
f 70/12/70 73/1/73 76/4/76 71/25/71
f 82/26/82 83/27/83 86/28/86 85/29/85
f 83/27/83 84/30/84 87/31/87 86/28/86
f 85/29/85 86/28/86 89/32/89 88/33/88
f 86/28/86 87/31/87 90/34/90 89/32/89
f 10/24/10 54/22/54 82/26/82 67/35/67
f 54/22/54 53/21/53 83/27/83 82/26/82
f 53/21/53 52/20/52 84/30/84 83/27/83
f 52/20/52 4/19/4 28/36/28 84/30/84
f 84/30/84 28/36/28 29/37/29 87/31/87
f 87/31/87 29/37/29 30/38/30 90/34/90
f 90/34/90 30/38/30 8/39/8 55/40/55
f 89/32/89 90/34/90 55/40/55 56/41/56
f 88/33/88 89/32/89 56/41/56 57/42/57
f 69/43/69 88/33/88 57/42/57 11/44/11
f 68/45/68 85/29/85 88/33/88 69/43/69
f 67/35/67 82/26/82 85/29/85 68/45/68
f 91/46/91 92/47/92 95/48/95 94/49/94
f 92/47/92 93/50/93 96/51/96 95/48/95
f 94/49/94 95/48/95 98/52/98 97/53/97
f 95/48/95 96/51/96 99/54/99 98/52/98
f 11/44/11 57/42/57 91/46/91 64/55/64
f 57/42/57 56/41/56 92/47/92 91/46/91
f 56/41/56 55/40/55 93/50/93 92/47/92
f 55/40/55 8/39/8 37/56/37 93/50/93
f 93/50/93 37/56/37 38/57/38 96/51/96
f 96/51/96 38/57/38 39/58/39 99/54/99
f 99/54/99 39/58/39 6/59/6 58/60/58
f 98/52/98 99/54/99 58/60/58 59/61/59
f 97/53/97 98/52/98 59/61/59 60/62/60
f 66/63/66 97/53/97 60/62/60 12/64/12
f 65/65/65 94/49/94 97/53/97 66/63/66
f 64/55/64 91/46/91 94/49/94 65/65/65
f 100/66/100 101/67/101 104/68/104 103/69/103
f 101/67/101 102/70/102 105/71/105 104/68/104
f 103/69/103 104/68/104 107/72/107 106/73/106
f 104/68/104 105/71/105 108/74/108 107/72/107
f 12/75/12 60/76/60 100/66/100 61/77/61
f 60/76/60 59/78/59 101/67/101 100/66/100
f 59/78/59 58/79/58 102/70/102 101/67/101
f 58/79/58 6/80/6 46/81/46 102/70/102
f 102/70/102 46/81/46 47/82/47 105/71/105
f 105/71/105 47/82/47 48/83/48 108/74/108
f 108/74/108 48/83/48 2/15/2 18/14/18
f 107/72/107 108/74/108 18/14/18 17/13/17
f 106/73/106 107/72/107 17/13/17 16/11/16
f 63/84/63 106/73/106 16/11/16 9/10/9
f 62/85/62 103/69/103 106/73/106 63/84/63
f 61/77/61 100/66/100 103/69/103 62/85/62
f 109/86/109 110/87/110 113/88/113 112/89/112
f 110/87/110 111/90/111 114/91/114 113/88/113
f 112/89/112 113/88/113 116/92/116 115/93/115
f 113/88/113 114/91/114 117/94/117 116/92/116
f 5/95/5 42/96/42 109/86/109 45/97/45
f 42/96/42 41/98/41 110/87/110 109/86/109
f 41/98/41 40/99/40 111/90/111 110/87/110
f 40/99/40 12/75/12 61/77/61 111/90/111
f 111/90/111 61/77/61 62/85/62 114/91/114
f 114/91/114 62/85/62 63/84/63 117/94/117
f 117/94/117 63/84/63 9/10/9 51/100/51
f 116/92/116 117/94/117 51/100/51 50/101/50
f 115/93/115 116/92/116 50/101/50 49/102/49
f 43/103/43 115/93/115 49/102/49 1/104/1
f 44/105/44 112/89/112 115/93/115 43/103/43
f 45/97/45 109/86/109 112/89/112 44/105/44
f 118/106/118 119/107/119 122/108/122 121/109/121
f 119/107/119 120/110/120 123/111/123 122/108/122
f 121/109/121 122/108/122 125/112/125 124/113/124
f 122/108/122 123/111/123 126/114/126 125/112/125
f 7/115/7 33/116/33 118/106/118 36/117/36
f 33/116/33 32/118/32 119/107/119 118/106/118
f 32/118/32 31/119/31 120/110/120 119/107/119
f 31/119/31 11/44/11 64/55/64 120/110/120
f 120/110/120 64/55/64 65/65/65 123/111/123
f 123/111/123 65/65/65 66/63/66 126/114/126
f 126/114/126 66/63/66 12/64/12 40/120/40
f 125/112/125 126/114/126 40/120/40 41/121/41
f 124/113/124 125/112/125 41/121/41 42/122/42
f 34/123/34 124/113/124 42/122/42 5/124/5
f 35/125/35 121/109/121 124/113/124 34/123/34
f 36/117/36 118/106/118 121/109/121 35/125/35
f 127/126/127 128/127/128 131/128/131 130/129/130
f 128/127/128 129/130/129 132/131/132 131/128/131
f 130/129/130 131/128/131 134/132/134 133/133/133
f 131/128/131 132/131/132 135/134/135 134/132/134
f 3/135/3 24/136/24 127/126/127 27/137/27
f 24/136/24 23/138/23 128/127/128 127/126/127
f 23/138/23 22/139/22 129/130/129 128/127/128
f 22/139/22 10/24/10 67/35/67 129/130/129
f 129/130/129 67/35/67 68/45/68 132/131/132
f 132/131/132 68/45/68 69/43/69 135/134/135
f 135/134/135 69/43/69 11/44/11 31/119/31
f 134/132/134 135/134/135 31/119/31 32/118/32
f 133/133/133 134/132/134 32/118/32 33/116/33
f 25/140/25 133/133/133 33/116/33 7/115/7
f 26/141/26 130/129/130 133/133/133 25/140/25
f 27/137/27 127/126/127 130/129/130 26/141/26
f 136/142/136 137/143/137 140/144/140 139/145/139
f 137/143/137 138/146/138 141/147/141 140/144/140
f 139/145/139 140/144/140 143/148/143 142/149/142
f 140/144/140 141/147/141 144/150/144 143/148/143
f 1/104/1 49/102/49 136/142/136 15/151/15
f 49/102/49 50/101/50 137/143/137 136/142/136
f 50/101/50 51/100/51 138/146/138 137/143/137
f 51/100/51 9/10/9 70/12/70 138/146/138
f 138/146/138 70/12/70 71/25/71 141/147/141
f 141/147/141 71/25/71 72/23/72 144/150/144
f 144/150/144 72/23/72 10/24/10 22/139/22
f 143/148/143 144/150/144 22/139/22 23/138/23
f 142/149/142 143/148/143 23/138/23 24/136/24
f 13/152/13 142/149/142 24/136/24 3/135/3
f 14/153/14 139/145/139 142/149/142 13/152/13
f 15/151/15 136/142/136 139/145/139 14/153/14
